<svg id="Layer_1" data-name="Layer 1" xmlns="http://www.w3.org/2000/svg" xmlns:xlink="http://www.w3.org/1999/xlink" viewBox="0 0 1000 1000"><defs><style>.cls-1{fill:#fff;}.cls-2{fill:url(#radial-gradient);}.cls-3{fill:url(#radial-gradient-2);}.cls-4{fill:#86bee7;}.cls-5{fill:#102147;}</style><radialGradient id="radial-gradient" cx="500.53" cy="499.75" r="365.28" gradientUnits="userSpaceOnUse"><stop offset="0" stop-color="#0033ae"/><stop offset="1" stop-color="#12254b"/></radialGradient><radialGradient id="radial-gradient-2" cx="500.01" cy="499.75" r="365.28" gradientUnits="userSpaceOnUse"><stop offset="0.52" stop-color="#073779"/><stop offset="0.91" stop-color="#072855"/></radialGradient></defs><rect class="cls-1" x="114.07" y="60.58" width="771.86" height="878.84" rx="20"/><g id="Main_logo" data-name="Main logo"><rect class="cls-2" x="135.12" y="134.6" width="730.81" height="730.31"/><rect id="Gradient_Ferj_" data-name="Gradient(Ferj)" class="cls-3" x="134.6" y="134.6" width="730.81" height="730.31"/><path class="cls-4" d="M421.69,859.2v-9.09L440.05,826a14.16,14.16,0,0,0,1.93-3.33,8.72,8.72,0,0,0,.68-3.18v-.07a4.15,4.15,0,0,0-1.4-3.35,6,6,0,0,0-4-1.17,5.31,5.31,0,0,0-4,1.63,7.82,7.82,0,0,0-1.9,4.66v0H421v0q.51-7.62,4.87-11.81a15.63,15.63,0,0,1,11.31-4.2q7.55,0,11.68,3.65c2.76,2.42,4.14,5.86,4.14,10.29v0a21.44,21.44,0,0,1-1.27,7.23,22.6,22.6,0,0,1-3.55,6.49L435,849.49h18.28v9.71Z"/><path class="cls-4" d="M477.42,859.75q-8,0-12-4.1t-4-11.09V820.25q0-7.11,4-11.15t12-4.05c5.29,0,9.29,1.35,12,4s4,6.41,4,11.17v24.31q0,7.1-4.05,11.15T477.42,859.75Zm0-9.71a5,5,0,0,0,4.54-2.15,10.88,10.88,0,0,0,1.38-5.91V822.82A10.83,10.83,0,0,0,482,816.9a5.88,5.88,0,0,0-9.07,0,10.73,10.73,0,0,0-1.39,5.92V842a10.79,10.79,0,0,0,1.39,5.91A5,5,0,0,0,477.42,850Z"/><path class="cls-4" d="M517.51,859.75q-8,0-12-4.1t-4-11.09V820.25q0-7.11,4.05-11.15t11.95-4.05q7.95,0,12,4t4,11.17v24.31q0,7.1-4,11.15T517.51,859.75Zm0-9.71a5,5,0,0,0,4.54-2.15,10.88,10.88,0,0,0,1.38-5.91V822.82a10.83,10.83,0,0,0-1.38-5.92,5.86,5.86,0,0,0-9.06,0,10.73,10.73,0,0,0-1.4,5.92V842a10.79,10.79,0,0,0,1.4,5.91A5,5,0,0,0,517.51,850Z"/><path class="cls-4" d="M557.64,859.75A20.21,20.21,0,0,1,549,858a14.52,14.52,0,0,1-6-5.12,15.82,15.82,0,0,1-2.5-8.09h10.41a6.34,6.34,0,0,0,1.84,3.83,5.4,5.4,0,0,0,3.79,1.36,5.94,5.94,0,0,0,4.43-1.6,6.2,6.2,0,0,0,1.57-4.51v-1.25a7.63,7.63,0,0,0-1.27-4.71,4.32,4.32,0,0,0-3.63-1.65h-4.52v-9.71h4.52a3.42,3.42,0,0,0,3-1.46,6.83,6.83,0,0,0,1-4.06v-.92a5.64,5.64,0,0,0-1.16-3.81,4.07,4.07,0,0,0-3.25-1.34,4.63,4.63,0,0,0-3.51,1.54,8.41,8.41,0,0,0-2,4.38H541.38q.68-7.47,5.19-11.59a15.85,15.85,0,0,1,11-4.12q7.1,0,11,3.63t3.88,10.28v1.62a10.87,10.87,0,0,1-7.21,10.59,9.47,9.47,0,0,1,6,4.05,14.19,14.19,0,0,1,2.11,8V845q0,7-4.12,10.89T557.64,859.75Z"/><path class="cls-5" d="M155.78,919.42a32.53,32.53,0,0,1-6.79-.7,28.28,28.28,0,0,1-6.21-2.05,24.64,24.64,0,0,1-5.23-3.25l4.23-7.53a20.56,20.56,0,0,0,6.46,3.55,23.34,23.34,0,0,0,7.54,1.25,13.2,13.2,0,0,0,6.93-1.52,4.76,4.76,0,0,0,2.46-4.28v0a4.14,4.14,0,0,0-1.23-3.22,7.79,7.79,0,0,0-3.25-1.65q-2-.53-4.38-.9-2.84-.44-5.73-1.08a18.43,18.43,0,0,1-5.34-2.07,10.56,10.56,0,0,1-3.91-4,14.33,14.33,0,0,1-1.48-7v0q0-7.1,4.66-11t13.2-3.88a26.1,26.1,0,0,1,8,1.31,28.7,28.7,0,0,1,7.56,3.75l-3.86,7.73a23.55,23.55,0,0,0-5.85-3,18,18,0,0,0-5.85-1,12.69,12.69,0,0,0-6.5,1.38,4.32,4.32,0,0,0-2.3,3.88v0a4.46,4.46,0,0,0,1.37,3.53,8.71,8.71,0,0,0,3.56,1.78c1.47.39,3,.75,4.73,1.09q2.81.52,5.57,1.31a19,19,0,0,1,5.07,2.25,10.58,10.58,0,0,1,3.66,4,14.22,14.22,0,0,1,1.37,6.67v.07q0,7-4.83,10.84T155.78,919.42Z"/><path class="cls-5" d="M197.93,919.42a18.91,18.91,0,0,1-9.31-2.21,15.43,15.43,0,0,1-6.18-6.25,19.29,19.29,0,0,1-2.2-9.4V887.83a19.22,19.22,0,0,1,2.2-9.41,15.47,15.47,0,0,1,6.18-6.24,20.74,20.74,0,0,1,18.63,0,15.59,15.59,0,0,1,6.18,6.24,19.33,19.33,0,0,1,2.2,9.41v13.73a19.4,19.4,0,0,1-2.2,9.4,15.56,15.56,0,0,1-6.18,6.25A19,19,0,0,1,197.93,919.42Zm0-9.13a7.94,7.94,0,0,0,6-2.33,8.52,8.52,0,0,0,2.25-6.17V887.6a8.48,8.48,0,0,0-2.25-6.18,8.87,8.87,0,0,0-12,0,8.48,8.48,0,0,0-2.25,6.18v14.19A8.52,8.52,0,0,0,192,908,7.94,7.94,0,0,0,197.93,910.29Z"/><path class="cls-5" d="M224.62,918.92V870.47h9.14v48.45ZM228,879.27v-8.8h28.49v8.8Zm0,20.42V890.9h24.82v8.79Z"/><path class="cls-5" d="M259.78,879.27v-8.8h35.53v8.8ZM273,918.92V874.43h9.13v44.49Z"/><path class="cls-5" d="M313.94,902.79l9.26-32.32h7.33l9.27,32.32L346,870.47h9.39l-11.16,48.45h-8.6l-8.59-33.86-9,33.86h-8.6l-11.16-48.45h9.39Z"/><path class="cls-5" d="M353.43,918.92,372,870.47h5.8l18.53,48.45h-9.83l-11.6-33.09-11.59,33.09Zm8.89-7.76v-8.8h25.5v8.8Z"/><path class="cls-5" d="M402.28,918.92V870.43h9.13v48.49Zm3.63-19.49v-8.8h16.86a4.18,4.18,0,0,0,3.42-1.57,6.46,6.46,0,0,0,1.32-4.13,6.28,6.28,0,0,0-1.29-4.13,4.2,4.2,0,0,0-3.45-1.57H405.91v-8.8h17.6a13.52,13.52,0,0,1,7.05,1.8,12.21,12.21,0,0,1,4.68,5.07,18.27,18.27,0,0,1,0,15.26,12.35,12.35,0,0,1-4.68,5.07,13.39,13.39,0,0,1-7,1.8Zm22,19.49-11.76-21,9.76-1.54,13.07,22.53Z"/><path class="cls-5" d="M446.77,918.92V870.47h9.13v48.45Zm3.3-39.65v-8.8h29.16v8.8Zm0,20v-8.8h25.49v8.8Zm0,19.66v-8.8h29.16v8.8Z"/><path class="cls-5" d="M505.89,918.92V870.47H515v48.45Zm3.3-39.65v-8.8h29.15v8.8Zm0,20v-8.8h25.49v8.8Zm0,19.66v-8.8h29.15v8.8Z"/><path class="cls-5" d="M546.68,918.89V870.47h11.16l18,37.12-.8.87v-38h8.73v48.42H572.57l-18-36.56.8-.87v37.43Z"/><path class="cls-5" d="M612.13,891.83h16.79v9.46a19.78,19.78,0,0,1-2.2,9.55,15.62,15.62,0,0,1-6.15,6.33,18.41,18.41,0,0,1-9.28,2.25,19.87,19.87,0,0,1-9.38-2.11,15.19,15.19,0,0,1-6.23-6,17.67,17.67,0,0,1-2.22-9v-14.3a19.81,19.81,0,0,1,2.2-9.53,15.76,15.76,0,0,1,6.15-6.31,18.43,18.43,0,0,1,9.28-2.25,17.73,17.73,0,0,1,8,1.8,17.18,17.18,0,0,1,6.08,5,18.22,18.22,0,0,1,3.33,7.56h-9.86a6.29,6.29,0,0,0-2.92-3.65,9,9,0,0,0-4.65-1.28,7.77,7.77,0,0,0-5.93,2.37,8.74,8.74,0,0,0-2.23,6.26v14.3a7.1,7.1,0,0,0,2.3,5.52,8.71,8.71,0,0,0,6.06,2.08,8,8,0,0,0,5.93-2.25,8.54,8.54,0,0,0,2.24-6.28v-.8h-7.33Z"/><path class="cls-5" d="M646.72,870.47v48.45h-9.47V870.47Z"/><path class="cls-5" d="M656.71,918.89V870.47h11.17l18,37.12-.8.87v-38h8.73v48.42H682.61l-18-36.56.8-.87v37.43Z"/><path class="cls-5" d="M704.5,918.92V870.47h9.13v48.45Zm3.3-39.65v-8.8H737v8.8Zm0,20v-8.8h25.5v8.8Zm0,19.66v-8.8H737v8.8Z"/><path class="cls-5" d="M745.29,918.92V870.47h9.13v48.45Zm3.3-39.65v-8.8h29.16v8.8Zm0,20v-8.8h25.5v8.8Zm0,19.66v-8.8h29.16v8.8Z"/><path class="cls-5" d="M786.08,918.92V870.43h9.13v48.49Zm3.64-19.49v-8.8h16.86a4.16,4.16,0,0,0,3.41-1.57,6.4,6.4,0,0,0,1.32-4.13A6.33,6.33,0,0,0,810,880.8a4.23,4.23,0,0,0-3.45-1.57H789.72v-8.8h17.59a13.49,13.49,0,0,1,7.05,1.8A12.21,12.21,0,0,1,819,877.3a16.59,16.59,0,0,1,1.67,7.63,16.35,16.35,0,0,1-1.69,7.63,12.35,12.35,0,0,1-4.68,5.07,13.39,13.39,0,0,1-7,1.8Zm22,19.49-11.77-21,9.77-1.54,13.06,22.53Z"/><path class="cls-5" d="M844.47,919.42a32.5,32.5,0,0,1-6.78-.7,28.37,28.37,0,0,1-6.22-2.05,24.64,24.64,0,0,1-5.23-3.25l4.23-7.53a20.5,20.5,0,0,0,6.47,3.55,23.23,23.23,0,0,0,7.53,1.25,13.2,13.2,0,0,0,6.93-1.52,4.77,4.77,0,0,0,2.47-4.28v0a4.14,4.14,0,0,0-1.24-3.22,7.73,7.73,0,0,0-3.25-1.65q-2-.53-4.38-.9-2.84-.44-5.73-1.08a18.36,18.36,0,0,1-5.33-2.07,10.58,10.58,0,0,1-3.92-4,14.33,14.33,0,0,1-1.48-7v0q0-7.1,4.66-11T846.4,870a26.1,26.1,0,0,1,8,1.31A28.7,28.7,0,0,1,862,875l-3.86,7.73a23.55,23.55,0,0,0-5.85-3,17.92,17.92,0,0,0-5.85-1,12.72,12.72,0,0,0-6.5,1.38,4.32,4.32,0,0,0-2.3,3.88v0a4.46,4.46,0,0,0,1.37,3.53,8.69,8.69,0,0,0,3.57,1.78c1.46.39,3,.75,4.73,1.09,1.86.35,3.72.79,5.56,1.31A18.88,18.88,0,0,1,857.9,894a10.58,10.58,0,0,1,3.66,4,14.22,14.22,0,0,1,1.37,6.67v.07q0,7-4.83,10.84T844.47,919.42Z"/><path class="cls-5" d="M140.45,129.53V81.08h9.13v48.45Zm4.16-18.79v-8.8h15.5a5.21,5.21,0,0,0,4-1.65,6.14,6.14,0,0,0,1.53-4.35,6.29,6.29,0,0,0-1.51-4.42,5.2,5.2,0,0,0-4-1.64h-15.5v-8.8h15.27a16.51,16.51,0,0,1,8,1.85,13.26,13.26,0,0,1,5.32,5.18,17,17,0,0,1,0,15.63,13.14,13.14,0,0,1-5.34,5.16,16.71,16.71,0,0,1-8,1.84Z"/><path class="cls-5" d="M182.27,129.53V81.08h9.13v48.45Zm4.23-19.63v-8.79h28.23v8.79Zm22.3,19.63V81.08h9.13v48.45Z"/><path class="cls-5" d="M237.39,81.08v48.45h-9.46V81.08Z"/><path class="cls-5" d="M247.39,129.53V81.08h9.13v48.45Zm4.06,0v-8.8h28.4v8.8Z"/><path class="cls-5" d="M295.31,81.08v48.45h-9.47V81.08Z"/><path class="cls-5" d="M305.31,129.53V81.08h9.13v48.45Zm4.16-18.79v-8.8H325a5.21,5.21,0,0,0,4-1.65,6.14,6.14,0,0,0,1.53-4.35A6.29,6.29,0,0,0,329,91.52a5.18,5.18,0,0,0-4-1.64h-15.5v-8.8h15.26a16.52,16.52,0,0,1,8,1.85,13.18,13.18,0,0,1,5.31,5.18,17,17,0,0,1,0,15.63,13.05,13.05,0,0,1-5.33,5.16,16.75,16.75,0,0,1-8,1.84Z"/><path class="cls-5" d="M347.13,129.53V81.08h9.13v48.45Zm4.16-18.79v-8.8h15.5a5.2,5.2,0,0,0,4-1.65,6.14,6.14,0,0,0,1.53-4.35,6.29,6.29,0,0,0-1.51-4.42,5.19,5.19,0,0,0-4-1.64h-15.5v-8.8h15.27a16.51,16.51,0,0,1,8,1.85,13.26,13.26,0,0,1,5.32,5.18,17,17,0,0,1,0,15.63,13.18,13.18,0,0,1-5.33,5.16,16.78,16.78,0,0,1-8,1.84Z"/><path class="cls-5" d="M397.75,81.08v48.45h-9.46V81.08Z"/><path class="cls-5" d="M407.75,129.5V81.08h11.16l18,37.12-.8.87v-38h8.73V129.5H433.64l-18-36.56.8-.87V129.5Z"/><path class="cls-5" d="M455.54,129.53V81.08h9.13v48.45Zm3.29-39.65v-8.8H488v8.8Zm0,20v-8.8h25.5v8.8Zm0,19.66v-8.8H488v8.8Z"/><path class="cls-5" d="M529.88,130a32.5,32.5,0,0,1-6.78-.7,28.28,28.28,0,0,1-6.21-2.05,24.39,24.39,0,0,1-5.23-3.25l4.23-7.53a20.45,20.45,0,0,0,6.46,3.55,23.32,23.32,0,0,0,7.53,1.25,13.31,13.31,0,0,0,6.94-1.52,4.76,4.76,0,0,0,2.46-4.28v0a4.14,4.14,0,0,0-1.23-3.22,7.79,7.79,0,0,0-3.25-1.65c-1.34-.35-2.81-.65-4.38-.9q-2.83-.44-5.73-1.08a18.32,18.32,0,0,1-5.34-2.07,10.52,10.52,0,0,1-3.91-4,14.26,14.26,0,0,1-1.49-7v0q0-7.09,4.67-11t13.2-3.88a26,26,0,0,1,8,1.31,28.76,28.76,0,0,1,7.57,3.75l-3.87,7.73a23.31,23.31,0,0,0-5.84-3,18,18,0,0,0-5.85-1,12.69,12.69,0,0,0-6.5,1.38,4.32,4.32,0,0,0-2.3,3.88v0a4.45,4.45,0,0,0,1.36,3.53A8.75,8.75,0,0,0,528,99.92c1.47.39,3,.75,4.73,1.08,1.87.36,3.72.8,5.57,1.32a18.81,18.81,0,0,1,5.06,2.25,10.52,10.52,0,0,1,3.67,4,14.19,14.19,0,0,1,1.37,6.67v.06q0,7-4.84,10.85T529.88,130Z"/><path class="cls-5" d="M572,130a18.88,18.88,0,0,1-9.31-2.21,15.58,15.58,0,0,1-6.19-6.25,19.4,19.4,0,0,1-2.2-9.4V98.44a19.4,19.4,0,0,1,2.2-9.42,15.59,15.59,0,0,1,6.19-6.23,20.71,20.71,0,0,1,18.62,0A15.59,15.59,0,0,1,587.54,89a19.4,19.4,0,0,1,2.2,9.42v13.73a19.4,19.4,0,0,1-2.2,9.4,15.58,15.58,0,0,1-6.19,6.25A18.91,18.91,0,0,1,572,130Zm0-9.13a7.94,7.94,0,0,0,6-2.33,8.52,8.52,0,0,0,2.25-6.17V98.21A8.52,8.52,0,0,0,578,92a8.9,8.9,0,0,0-12,0,8.52,8.52,0,0,0-2.25,6.19V112.4a8.52,8.52,0,0,0,2.25,6.17A7.94,7.94,0,0,0,572,120.9Z"/><path class="cls-5" d="M614.6,130a19.71,19.71,0,0,1-9.49-2.11,14.2,14.2,0,0,1-6-6.17,21.28,21.28,0,0,1-2.06-9.78V98.67a21.21,21.21,0,0,1,2.06-9.79,14.26,14.26,0,0,1,6-6.17,19.6,19.6,0,0,1,9.49-2.13,16.75,16.75,0,0,1,8.18,2,16.15,16.15,0,0,1,5.93,5.7A24.46,24.46,0,0,1,632,97.31h-9.47a11.78,11.78,0,0,0-1.65-4.12,7.89,7.89,0,0,0-2.7-2.58,7,7,0,0,0-3.54-.9,7.58,7.58,0,0,0-6,2.35,9.53,9.53,0,0,0-2.12,6.61V112a9.5,9.5,0,0,0,2.12,6.6,7.63,7.63,0,0,0,6,2.33,7.05,7.05,0,0,0,5.06-2,10.57,10.57,0,0,0,2.83-5.62H632a25.18,25.18,0,0,1-3.28,9,16.26,16.26,0,0,1-5.92,5.72A16.64,16.64,0,0,1,614.6,130Z"/><path class="cls-5" d="M648.42,81.08v48.45H639V81.08Z"/><path class="cls-5" d="M658.42,129.53V81.08h9.13v48.45Zm3.3-39.65v-8.8h29.16v8.8Zm0,20v-8.8h25.49v8.8Zm0,19.66v-8.8h29.16v8.8Z"/><path class="cls-5" d="M693.88,89.88v-8.8H729.4v8.8Zm13.19,39.65V85h9.13v44.49Z"/><path class="cls-5" d="M768.06,81.08l-14.27,29.76v18.69h-9.13V110.84L730.4,81.08H740l9.27,20.86,9.26-20.86Z"/><path class="cls-5" d="M806.75,130a19,19,0,0,1-9.32-2.21,15.62,15.62,0,0,1-6.18-6.25,19.4,19.4,0,0,1-2.2-9.4V98.44a19.4,19.4,0,0,1,2.2-9.42,15.63,15.63,0,0,1,6.18-6.23,20.74,20.74,0,0,1,18.63,0A15.51,15.51,0,0,1,822.24,89a19.28,19.28,0,0,1,2.2,9.42v13.73a19.29,19.29,0,0,1-2.2,9.4,15.49,15.49,0,0,1-6.18,6.25A18.91,18.91,0,0,1,806.75,130Zm0-9.13a7.94,7.94,0,0,0,6-2.33A8.52,8.52,0,0,0,815,112.4V98.21A8.52,8.52,0,0,0,812.73,92a8.9,8.9,0,0,0-12,0,8.52,8.52,0,0,0-2.25,6.19V112.4a8.52,8.52,0,0,0,2.25,6.17A7.94,7.94,0,0,0,806.75,120.9Z"/><path class="cls-5" d="M833.44,129.53V81.08h9.13v48.45Zm3.33-39.65v-8.8h28.5v8.8Zm0,20.42v-8.8H861.6v8.8Z"/><path class="cls-4" d="M324.05,736.23a15,15,0,0,1-15,15H135.12v-30H309.05A15,15,0,0,1,324.05,736.23Z"/><rect class="cls-4" x="314.05" y="736.23" width="10" height="128.68"/><rect class="cls-4" x="135.12" y="844.52" width="173.53" height="5"/><path class="cls-4" d="M249.79,864.91H207.21a10,10,0,0,1,10-9.51h22.6A10,10,0,0,1,249.79,864.91Z"/><path class="cls-4" d="M301.06,864.91H258.48a10,10,0,0,1,10-9.51h22.6A10,10,0,0,1,301.06,864.91Z"/><path class="cls-4" d="M855,628.66l-152.91,19c-3.31.41-6.41,4-7,8l-11.46,84.73c-.61,4.51,1.65,8.44,5.09,8.76l162.41,15.19a10.73,10.73,0,0,0,12-10.44l2.43-116.75C865.73,631.67,861,627.93,855,628.66Zm-3,107.62a5.41,5.41,0,0,1-5.78,5.2l-152.35-8.73c-1.74-.1-2.9-2-2.61-4.25l9.18-69.82c.27-2,1.85-3.85,3.54-4l145.5-15.81c2.9-.31,5.22,1.59,5.14,4.28Z"/><path class="cls-4" d="M856.59,775.11l-15.35,16.24-15.51,16.4-52,55a20.21,20.21,0,0,1-2.43,2.17H738.18L595.05,804.2c-2.45-1-.21-4.28,4.85-7.21l75.21-43.47c3.64-2.1,8.92-3.54,11.89-3.24L793.14,761.2l29.08,3L849.28,767C856.73,767.74,860.14,771.35,856.59,775.11Z"/><path class="cls-4" d="M327.37,413.27a5,5,0,0,1-5,5H135.12v-10H322.37A5,5,0,0,1,327.37,413.27Z"/><rect class="cls-4" x="270.52" y="361.41" width="103.7" height="10" rx="5" transform="translate(688.78 44.04) rotate(90)"/><rect class="cls-4" x="287.38" y="134.6" width="10" height="63.77"/><circle class="cls-4" cx="322.37" cy="314.56" r="17.5"/><circle class="cls-4" cx="292.38" cy="198.36" r="17.5"/><path class="cls-4" d="M288.28,251.67c-9.95,6-25.12,10.54-43,12.75h0a205,205,0,0,1-49.51,0h0c-17.92-2.21-33.09-6.78-43-12.75a37.3,37.3,0,0,1-7.66-5.91c-3.19-3.32-4.94-6.92-4.94-10.67v18.68a51.36,51.36,0,0,0,4.94,3.81c6.9,4.71,15.9,8.74,26.42,11.82h0a160.31,160.31,0,0,0,24.26,5h0a198.94,198.94,0,0,0,49.57,0h0a160.45,160.45,0,0,0,24.27-5h0c10.51-3.08,19.51-7.11,26.41-11.82A36.43,36.43,0,0,0,288.28,251.67Zm0,0c-9.95,6-25.12,10.54-43,12.75h0a205,205,0,0,1-49.51,0h0c-17.92-2.21-33.09-6.78-43-12.75a37.3,37.3,0,0,1-7.66-5.91c-3.19-3.32-4.94-6.92-4.94-10.67v18.68a51.36,51.36,0,0,0,4.94,3.81c6.9,4.71,15.9,8.74,26.42,11.82h0a160.31,160.31,0,0,0,24.26,5h0a205.52,205.52,0,0,1,49.57,0h0a160.45,160.45,0,0,0,24.27-5h0c10.51-3.08,19.51-7.11,26.41-11.82A36.43,36.43,0,0,0,288.28,251.67Zm-67.82-57.41c-39.44,0-73,11.4-85.34,27.3v27.06a34,34,0,0,0,2.68,3c.7.71,1.44,1.41,2.23,2.1a51.36,51.36,0,0,0,4.94,3.81c6.9,4.71,15.9,8.74,26.42,11.82h0a160.31,160.31,0,0,0,24.26,5h0a198.94,198.94,0,0,0,49.57,0h0a160.45,160.45,0,0,0,24.27-5h0c10.51-3.08,19.51-7.11,26.41-11.82a51.36,51.36,0,0,0,4.94-3.81c.79-.69,1.53-1.39,2.23-2.1,4.78-4.85,7.53-10.2,7.75-15.84,0-.25,0-.49,0-.74C310.88,212.54,270.4,194.26,220.46,194.26Zm67.82,57.41c-9.95,6-25.12,10.54-43,12.75h0a205,205,0,0,1-49.51,0h0c-17.92-2.21-33.09-6.78-43-12.75a37.3,37.3,0,0,1-7.66-5.91c-3.19-3.32-4.94-6.92-4.94-10.67,0-17,36-30.83,80.43-30.83s80.42,13.8,80.42,30.83c0,3.75-1.74,7.34-4.94,10.66A36.79,36.79,0,0,1,288.28,251.67Zm0,0c-9.95,6-25.12,10.54-43,12.75h0a205,205,0,0,1-49.51,0h0c-17.92-2.21-33.09-6.78-43-12.75a37.3,37.3,0,0,1-7.66-5.91c-3.19-3.32-4.94-6.92-4.94-10.67v18.68a51.36,51.36,0,0,0,4.94,3.81c6.9,4.71,15.9,8.74,26.42,11.82h0a160.31,160.31,0,0,0,24.26,5h0a198.94,198.94,0,0,0,49.57,0h0a160.45,160.45,0,0,0,24.27-5h0c10.51-3.08,19.51-7.11,26.41-11.82A36.43,36.43,0,0,0,288.28,251.67Z"/><path class="cls-4" d="M310.86,267.51c-.21-5.63-3-11-7.75-15.84-.7-.71-1.44-1.41-2.23-2.1a49.86,49.86,0,0,0-4.94-3.82,36.79,36.79,0,0,1-7.66,5.92,36.43,36.43,0,0,1,7.66,5.91,51.36,51.36,0,0,0,4.94-3.81v14.47c0,4.27-2.26,8.34-6.36,12a43.23,43.23,0,0,1-8.26,5.69c-12.06,6.57-30.64,11.25-52.13,12.65h-.06c-4.42.3-9,.45-13.61.45s-9.19-.15-13.61-.45h-.06c-21.5-1.4-40.08-6.08-52.14-12.65a43.23,43.23,0,0,1-8.26-5.69c-4.1-3.7-6.36-7.77-6.36-12V253.77a51.36,51.36,0,0,0,4.94,3.81,36.43,36.43,0,0,1,7.66-5.91,37.3,37.3,0,0,1-7.66-5.91,51.36,51.36,0,0,0-4.94,3.81c-.79.69-1.53,1.39-2.23,2.1a34,34,0,0,0-2.68,3.05v27.06A36.48,36.48,0,0,0,139,286c.34.32.69.64,1.05.94a51.34,51.34,0,0,0,6.36,4.75c7.57,4.88,17.43,9,28.88,12h0a171.78,171.78,0,0,0,31.45,5h.06q6.69.45,13.67.46t13.67-.46h.06a171.78,171.78,0,0,0,31.45-5h0c11.45-3,21.3-7.08,28.87-12a51.34,51.34,0,0,0,6.36-4.75c.36-.3.71-.62,1.05-.94,5.56-5.2,8.75-11,8.93-17.13,0-.2,0-.4,0-.6S310.88,267.75,310.86,267.51Z"/><path class="cls-4" d="M245.24,264.42h0a205,205,0,0,1-49.51,0h0a159.21,159.21,0,0,0-24.27,5,160.31,160.31,0,0,0,24.26,5h0a205.52,205.52,0,0,1,49.57,0h0a160.45,160.45,0,0,0,24.27-5A159.34,159.34,0,0,0,245.24,264.42Zm65.62,38.69c-.18-6.13-3.37-11.94-8.93-17.14-.34-.32-.69-.64-1.05-.94a51.34,51.34,0,0,0-6.36-4.75,43.23,43.23,0,0,1-8.26,5.69,43.23,43.23,0,0,1,8.26,5.69,51.34,51.34,0,0,0,6.36-4.75V303.7c0,4.23-2.22,8.26-6.25,11.93a42.47,42.47,0,0,1-8.22,5.72c-14.54,8-38.66,13.18-66,13.18s-51.42-5.21-66-13.18a42.47,42.47,0,0,1-8.22-5.72c-4-3.67-6.25-7.7-6.25-11.93V286.91a51.34,51.34,0,0,0,6.36,4.75,43.23,43.23,0,0,1,8.26-5.69,43.23,43.23,0,0,1-8.26-5.69A51.34,51.34,0,0,0,140,285c-.36.3-.71.62-1.05.94a36.48,36.48,0,0,0-3.86,4.19v27.07a35.8,35.8,0,0,0,3.77,4.12c.37.35.75.69,1.14,1a53.5,53.5,0,0,0,6.25,4.67c16.35,10.57,43.48,17.48,74.18,17.48s57.83-6.91,74.17-17.48a53.5,53.5,0,0,0,6.25-4.67c.39-.34.77-.68,1.14-1,5.5-5.18,8.66-11,8.84-17.06a8.71,8.71,0,0,0,0-1.18Z"/><path class="cls-4" d="M234.13,298.62h-.06c-4.42.3-9,.45-13.61.45s-9.19-.15-13.61-.45h-.06a171.58,171.58,0,0,0-31.51,5,171.78,171.78,0,0,0,31.45,5h.06c4.44-.3,9-.45,13.67-.45s9.23.15,13.67.45h.06a171.78,171.78,0,0,0,31.45-5A171.58,171.58,0,0,0,234.13,298.62Zm76.73,39.78c-.18-6.1-3.34-11.89-8.84-17-.37-.35-.75-.69-1.14-1a52.44,52.44,0,0,0-6.25-4.68,42.47,42.47,0,0,1-8.22,5.72,42.43,42.43,0,0,1,8.22,5.7,53.5,53.5,0,0,0,6.25-4.67V339c0,17-36,30.83-80.42,30.83S140,356,140,339V322.38a53.5,53.5,0,0,0,6.25,4.67,42.43,42.43,0,0,1,8.22-5.7,42.47,42.47,0,0,1-8.22-5.72,53.58,53.58,0,0,0-6.25,4.69c-.39.34-.77.68-1.14,1a34.92,34.92,0,0,0-3.77,4.11v27.06c12.36,15.9,45.9,27.3,85.34,27.3,49.27,0,89.33-17.79,90.39-39.93a1.27,1.27,0,0,0,0-.2c0-.23,0-.46,0-.7A5.82,5.82,0,0,0,310.86,338.4Zm-104.1-29.79h0c4.44-.3,9-.45,13.67-.45s9.23.15,13.67.45h.06a171.78,171.78,0,0,0,31.45-5,171.58,171.58,0,0,0-31.51-5h-.06c-4.42.3-9,.45-13.61.45s-9.19-.15-13.61-.45h-.06a171.58,171.58,0,0,0-31.51,5,171.78,171.78,0,0,0,31.45,5Z"/><rect class="cls-4" x="300.88" y="235.09" width="9.98" height="104.8"/><path class="cls-4" d="M130,339q0,.45,0,.9h0Z"/><rect class="cls-4" x="135.12" y="235.09" width="4.91" height="104.8"/><rect class="cls-4" x="732.91" y="134.6" width="106.88" height="10" rx="5"/><rect class="cls-4" x="668.03" y="199.46" width="74.88" height="10" rx="5"/><rect class="cls-4" x="705.48" y="167.03" width="64.86" height="10" transform="translate(909.94 -565.88) rotate(90)"/><rect class="cls-4" x="659.17" y="167.27" width="92.14" height="10" transform="translate(84.74 549.13) rotate(-45)"/><rect class="cls-4" x="668.03" y="330.49" width="171.76" height="10" rx="5"/><rect class="cls-4" x="736.85" y="232.54" width="195.89" height="10" transform="translate(1072.33 -597.25) rotate(90)"/><rect class="cls-4" x="834.79" y="166.8" width="31.14" height="10" rx="5"/><rect class="cls-4" x="694.17" y="362.69" width="171.76" height="10" rx="5"/><rect class="cls-4" x="762.98" y="264.74" width="195.89" height="10" transform="translate(1130.67 -591.19) rotate(90)"/><rect class="cls-4" x="607.51" y="264.97" width="131.03" height="10" transform="translate(943 -403.06) rotate(90)"/><path class="cls-1" d="M756.74,305.4h0C643,269.73,515,284,408.58,354.42q-4.53,3-9,6.12t-9,6.46C288.09,442.92,231,558.34,225.63,677.37q-.31,6.84-.39,13.69,6.45,2.27,13,4.3c117,36.71,249.06,20.63,357.23-55.11s168.49-194.45,174-316.93q.3-6.78.38-13.58Q763.32,307.46,756.74,305.4Zm-162,334.93a170.39,170.39,0,0,1-224.25-25.46l5.13-29.1L395,572.21a124.57,124.57,0,1,0,30.59-173.49l-26.28-37.53A170.38,170.38,0,0,1,594.72,640.33ZM449.23,431.43a84.19,84.19,0,1,1-20.67,117.25A84.2,84.2,0,0,1,449.23,431.43Z"/><polygon class="cls-1" points="863.08 230.94 863.08 257.74 863.03 257.78 853.03 264.78 835.59 276.99 825.59 283.99 769.43 323.32 766.43 325.42 753.83 307.44 756.74 305.4 825.59 257.19 835.59 250.19 853.03 237.98 863.03 230.98 863.08 230.94"/><polygon class="cls-1" points="240.35 693.87 238.22 695.36 191.78 727.88 148.93 757.88 135.12 767.54 135.12 740.75 153.5 727.88 225.63 677.37 227.76 675.88 240.35 693.87"/><polygon class="cls-1" points="863.08 833.06 863.08 864.9 858.22 864.9 822.66 814.08 789.9 767.25 788.14 764.72 773.21 743.39 765.8 732.79 689.47 719.33 683.68 718.31 629.33 708.72 585.95 646.71 604.15 633.96 642.25 688.41 686.65 696.24 692.36 697.26 758.03 708.84 778.72 712.49 801.47 745.01 817.17 767.44 819.14 770.25 838.26 797.58 862.55 832.29 863.08 833.06"/><polygon class="cls-1" points="408.64 354.51 399.15 361.17 390.69 367.09 389.36 365.19 305.9 246 302.28 240.83 300.79 238.71 300.79 238.7 290.12 223.46 289 221.87 272.73 198.62 232.56 141.25 259.31 141.25 284.11 176.66 291.58 187.32 294.03 190.83 306.06 208.02 306.06 208.03 407.31 352.61 407.65 353.1 408.64 354.51"/><rect class="cls-4" x="135.12" y="497.91" width="730.81" height="5"/><rect class="cls-4" x="495.01" y="134.6" width="5" height="730.31"/><polygon class="cls-1" points="264.11 148.06 264.09 148.07 246.16 160.66 246.1 160.71 227.77 134.59 254.65 134.59 264.11 148.06"/><polygon class="cls-1" points="865.93 837.3 865.93 864.9 858.36 864.9 844.5 845.17 862.55 832.5 863.08 833.25 865.93 837.3"/></g></svg>